<svg xmlns="http://www.w3.org/2000/svg" viewBox="0 0 529.8 404.79">
  <defs><filter id="a" filterUnits="userSpaceOnUse"><feOffset
        dx="7"
        dy="7"
      /><feGaussianBlur result="e" /><feFlood
        flood-color="#6f5091"
        flood-opacity=".75"
      /><feComposite in2="e" operator="in" /><feComposite
        in="SourceGraphic"
      /></filter><filter id="b" filterUnits="userSpaceOnUse"><feOffset
        dx="7"
        dy="7"
      /><feGaussianBlur result="g" /><feFlood
        flood-color="#6f5091"
        flood-opacity=".75"
      /><feComposite in2="g" operator="in" /><feComposite
        in="SourceGraphic"
      /></filter><filter id="c" filterUnits="userSpaceOnUse"><feOffset
        dx="7"
        dy="7"
      /><feGaussianBlur result="i" /><feFlood
        flood-color="#6f5091"
        flood-opacity=".75"
      /><feComposite in2="i" operator="in" /><feComposite
        in="SourceGraphic"
      /></filter></defs><path
    d="M486.55 329.22c-1.88-70.95-26.42-137.78-84.62-181.34-40.71-30.47-91.72-45.65-142.36-45.65-52.19 0-104.97 16.15-146.24 48.55-55.75 43.77-78.91 109.25-80.74 178.43H12.3c1.78-74.45 26.65-145.15 86.09-192.83 45.3-36.34 103.43-54.4 161.18-54.4 56.03 0 112.78 16.98 157.41 51.38 61.84 47.66 88.03 119.58 89.86 195.85h-20.29Z"
    style="fill: #684282"
  /><path
    d="M466.26 329.22c-1.88-64.8-24.03-125.67-77.38-165.43-37.01-27.58-83.38-41.27-129.31-41.27-45.93 0-92.3 13.69-129.31 41.27-53.36 39.76-75.5 100.63-77.38 165.43H32.59c1.83-69.18 24.99-134.66 80.74-178.43 41.27-32.4 94.05-48.55 146.24-48.55 50.64 0 101.64 15.18 142.36 45.65 58.2 43.56 82.75 110.38 84.62 181.34h-20.29Z"
    style="fill: #906faf"
  /><path
    d="M445.98 329.22c-3.41-106.16-78.08-186.41-186.41-186.41-42.87 0-86.2 13.25-120.1 39.87-45.98 36.11-64.48 89.6-66.31 146.53H52.87c1.88-64.8 24.03-125.67 77.38-165.43 37.01-27.58 83.38-41.27 129.31-41.27 45.93 0 92.3 13.69 129.31 41.27 53.36 39.76 75.5 100.63 77.38 165.43h-20.29Z"
    style="fill: #c2a8d2"
  /><path
    d="M425.69 329.22c-3.41-94.78-69.36-165.89-166.12-166.12-96.75-.23-162.73 71.74-166.12 166.12H73.16c1.83-56.94 20.33-110.42 66.31-146.53 33.9-26.63 77.23-39.87 120.1-39.87 108.33 0 183 80.25 186.41 186.41h-20.29Z"
    style="fill: #c2b3da"
  /><g style="filter: url(#a)"><path
      d="M170.41 288.55c-.29 0-.58.02-.86.02-6.04-25.23-28.72-44-55.8-44-21.81 0-40.77 12.16-50.48 30.07a28.07 28.07 0 0 0-6.91-.86c-15.56 0-28.18 12.62-28.18 28.18 0 1.05.06 2.09.18 3.12h-.18C12.62 305.08 0 317.7 0 333.26s12.62 28.18 28.18 28.18h137.65c1.5.22 3.03.34 4.59.34 18.87 0 34.17-16.39 34.17-36.61s-15.3-36.61-34.17-36.61ZM495.63 288.55c-.29 0-.58.02-.86.02-6.04-25.23-28.72-44-55.8-44-21.81 0-40.77 12.16-50.48 30.07a28.07 28.07 0 0 0-6.91-.86c-15.56 0-28.18 12.62-28.18 28.18 0 1.05.06 2.09.18 3.12h-.18c-15.56 0-28.18 12.62-28.18 28.18s12.62 28.18 28.18 28.18h137.65c1.5.22 3.03.34 4.59.34 18.87 0 34.17-16.39 34.17-36.61s-15.3-36.61-34.17-36.61Z"
      style="fill: #fff"
    /></g><g style="filter: url(#b)"><path
      d="m135.38 244.73-12.27-.91c-2.74-.12-4.24-2.71-4.24-4.53v-.33l1.65-15.06c-1.13 2.27-2.31 4.61-3.31 6.49-.79 1.58-2.42 2.62-4.31 2.7l-6.2.24c-1.36 0-3.13-.52-4.37-3-1.04-1.92-2.27-4.29-3.49-6.67l1.63 15.38v.13c0 2.01-1.82 4.35-4.43 4.59l-11.64.97h-.1c-2.31 0-4.14-1.86-4.18-4.17l-2.34-46.45v-.06c0-2.22 1.54-3.94 3.74-4.17l12.01-.67h.19c1.15 0 3.29.55 4.23 1.72 2.89 3.42 7.82 11.21 11.83 17.93 4.18-7.01 9.08-14.63 11.91-17.99.74-.93 2.46-1.67 3.95-1.67h.25l11.94.6c2.25.12 3.87 1.82 3.87 4.06v.23l-2.04 46.5c-.15 2.06-1.72 4.13-4.12 4.13h-.15Z"
      style="fill: #7e468d"
    /><path
      d="m125.75 191.71 11.94.6c1.14.06 1.5.9 1.5 1.56v.12l-2.04 46.5c-.06.84-.72 1.74-1.62 1.74h-.06l-12.18-.9c-1.32-.06-1.92-1.38-1.92-2.04v-.06l2.82-25.92v-.3c0-.42-.06-.66-.24-.66-.12 0-.3.18-.54.48-1.08 1.5-5.46 10.86-8.4 16.38-.24.48-.9 1.32-2.22 1.38l-6.18.24c-1.08 0-1.68-.9-2.04-1.62-3-5.52-7.38-14.52-8.52-16.08-.24-.3-.42-.48-.6-.48-.12 0-.18.24-.18.6v.42l2.7 25.5v.06c0 .66-.84 1.92-2.16 2.04l-11.52.96h-.06c-.96 0-1.62-.9-1.62-1.74l-2.34-46.44c0-.66.36-1.56 1.5-1.68l11.82-.66h.12c.84 0 2.04.48 2.28.78 2.94 3.48 8.58 12.36 13.5 20.82.12.18.18.24.3.24s.18-.12.3-.3c4.92-8.46 10.56-17.28 13.5-20.76.24-.3 1.2-.78 2.04-.78h.12m.13-5h-.25c-2.2 0-4.58 1.04-5.86 2.55-2.56 3.03-6.45 8.97-10 14.77-3.57-5.84-7.46-11.8-9.96-14.77-1.58-1.87-4.5-2.55-6.1-2.55h-.4l-11.82.67h-.12l-.12.02c-3.46.36-5.98 3.16-5.98 6.65v.25l2.34 46.35c.09 3.64 3.02 6.58 6.62 6.58h.27l.21-.02 11.52-.96c4.05-.37 6.74-3.93 6.74-7.02v-.32l-.03-.26-.45-4.21c1.6 1.22 3.27 1.4 4.11 1.4h.19l6.18-.24c1.42-.06 2.76-.5 3.89-1.23l-.47 4.34-.03.27v.33c0 3.21 2.52 6.79 6.6 7.03l12.13.9h.18l.18.01h.06c3.45 0 6.35-2.81 6.61-6.39v-.14l2.04-46.5V193.88c0-3.55-2.68-6.37-6.24-6.55l-11.95-.6h-.13Z"
      style="fill: #dcc3f1"
    /><path
      d="M173.24 263.21c-.93 0-4.8-.83-8.17-3.34-2.89 1.25-5.98 1.9-9.05 1.9-11.67 0-21.16-8.9-21.16-19.84 0-8.34 6.04-20.08 19.48-20.08 2.73 0 5.54.49 8.04 1.4a5.26 5.26 0 0 1 1.86-.32h.41l10.49.91c3.14.24 4.26 2.37 4.26 4.11v.49l-.16 1.06c-.78 5.05-1.52 9.83-1.52 13.38 0 3.76.79 4.74 1.25 4.99.67.33 2.59 1.29 2.59 3.47 0 .69-.25 1.27-.44 1.65l-3.73 7.29c-1.28 2.42-2.96 2.92-4.15 2.92Zm-16.14-25.32c-2.31 0-3.38 2.52-3.38 4.22 0 1.86 1.16 3.74 3.74 3.74.31 0 .7-.03 1.16-.11-.08-1.12-.12-2.22-.12-3.33 0-1.28.04-2.63.12-4.09-.35-.23-.88-.43-1.52-.43Z"
      style="fill: #7e468d"
    /><path
      d="M154.34 224.35c3 0 5.94.66 8.28 1.68.36-.42.9-.6 1.62-.6h.3l10.38.9c1.56.12 1.98.9 1.98 1.62v.3c-.84 5.46-1.68 10.68-1.68 14.64 0 3.6.66 6.18 2.58 7.2.6.3 1.26.66 1.26 1.26 0 .12-.06.3-.18.54l-3.72 7.26c-.54 1.02-1.14 1.56-1.92 1.56-.6 0-4.8-.96-7.8-3.78-3.12 1.62-6.36 2.34-9.42 2.34-10.02 0-18.66-7.68-18.66-17.34 0-7.2 5.1-17.58 16.98-17.58m3.12 24c1.14 0 2.46-.24 3.84-.84-.18-1.56-.3-3.24-.3-5.1 0-1.56.06-3.18.18-4.98-.72-1.2-2.34-2.04-4.08-2.04-3.78 0-5.88 3.66-5.88 6.72 0 3.36 2.34 6.24 6.24 6.24m-3.12-29c-15.16 0-21.98 13.2-21.98 22.58 0 12.32 10.61 22.34 23.66 22.34 2.95 0 5.92-.54 8.74-1.58 3.33 2.11 6.92 3.02 8.48 3.02s4.39-.55 6.34-4.22l.02-.03.02-.03 3.72-7.26v-.03l.03-.03c.47-.95.7-1.86.7-2.77 0-1.61-.63-3.82-3.53-5.47-.12-.35-.31-1.21-.31-2.99 0-3.36.72-8.05 1.49-13l.14-.88.06-.38v-.68c0-2.94-2.06-6.26-6.6-6.61l-10.33-.9-.22-.02h-.52c-.66 0-1.26.07-1.81.19-2.57-.83-5.37-1.27-8.09-1.27Z"
      style="fill: #dcc3f1"
    /><path
      d="M208.46 263.27c-1.96 0-3.23-1.38-3.64-1.83l-4.52-5.25c-1.98 1.45-3.97 2.83-5.65 3.99l-.96.66c-.93.59-1.94 1.16-3.22 1.16-1.02 0-2-.37-2.83-1.08l-7.02-5.65c-1.57-1.28-1.89-2.61-1.89-3.51 0-.83.26-2.05 1.52-3.14l1.52-1.33c1.71-1.5 3.92-3.43 6.14-5.45l-6.41-7.47c-.83-.93-1.26-1.97-1.26-3.07 0-1.53.97-2.93 2.58-3.74l9.03-4.66c.87-.43 1.67-.64 2.47-.64 1.49 0 2.94.73 3.97 2l3.96 4.62 4.33-4.37c.37-.37 1.46-1.46 3.16-1.46 1.09 0 2.16.44 3.26 1.34l7.83 6.22c1.14.89 1.73 1.95 1.73 3.16 0 .82 0 2.91-7.34 10.17l6.19 7.15c.8.91 1.21 1.91 1.21 2.96 0 1.55-.94 2.95-2.52 3.74l-8.67 4.57c-1.08.62-2.02.91-2.95.91Z"
      style="fill: #7e468d"
    /><path
      d="M194.3 224.77c.78 0 1.5.42 2.04 1.08l5.76 6.72 6.24-6.3c.42-.42.84-.72 1.38-.72.48 0 1.02.24 1.68.78l7.86 6.24c.54.42.78.78.78 1.2 0 2.04-7.08 8.88-8.28 10.02l7.74 8.94c.42.48.6.9.6 1.32 0 .6-.42 1.14-1.14 1.5l-8.76 4.62c-.72.42-1.26.6-1.74.6-.6 0-1.14-.3-1.8-1.02l-6-6.96c-2.88 2.22-6.06 4.38-8.4 6-.66.42-1.2.72-1.8.72-.36 0-.78-.12-1.2-.48l-7.08-5.7c-.66-.54-.96-1.08-.96-1.56 0-.42.18-.84.66-1.26 2.04-1.8 5.94-5.16 9.48-8.46l-7.98-9.3c-.48-.54-.66-1.02-.66-1.44 0-.6.48-1.14 1.2-1.5l9.06-4.68c.48-.24.9-.36 1.32-.36m0-5c-1.2 0-2.36.29-3.56.89h-.03l-.03.03-9.04 4.67c-2.46 1.24-3.93 3.47-3.93 5.95 0 1.18.33 2.95 1.89 4.72l4.8 5.59c-1.57 1.4-3.06 2.71-4.3 3.79-.58.51-1.1.96-1.53 1.35-1.51 1.32-2.35 3.1-2.35 5.01 0 1.17.36 3.44 2.79 5.43l7.07 5.69c1.27 1.06 2.78 1.62 4.38 1.62 2.12 0 3.66-.98 4.48-1.5l.08-.05.08-.06.96-.66c1.17-.8 2.48-1.71 3.84-2.68l2.97 3.45.05.06.05.06c1.61 1.75 3.45 2.64 5.49 2.64 1.78 0 3.21-.68 4.16-1.22l8.64-4.55c2.41-1.23 3.85-3.44 3.85-5.94 0-1.67-.62-3.22-1.84-4.61l-4.66-5.38c6.44-6.68 6.44-8.89 6.44-10.28s-.47-3.4-2.71-5.15l-7.8-6.19c-1.54-1.25-3.16-1.88-4.81-1.88-1.81 0-3.46.73-4.91 2.18l-2.44 2.46-2.2-2.57c-1.51-1.82-3.65-2.86-5.86-2.86Z"
      style="fill: #dcc3f1"
    /><path
      d="M273.37 271.34c-15.9 0-28.36-12.43-28.36-28.3 0-19.92 15.24-28.84 30.34-28.84 5.94 0 11.41 1.45 15.41 4.07 1.16.82 1.85 2.23 1.85 3.65 0 .27 0 .71-.19 1.28l-3.37 9.52c-.51 1.36-1.96 2.68-3.8 2.68-.75 0-1.46-.21-2.05-.6-1.33-.85-4.18-1.8-7.25-1.8-6 0-9.44 3.46-9.44 9.5s4.59 8.66 9.14 8.66c3.88 0 7.86-1.86 10.9-5.09.75-.75 1.72-1.15 2.72-1.15 1.54 0 3.02.86 3.7 2.15l4.48 8.01c.31.55.74 1.42.74 2.48 0 1.26-.53 2.41-1.63 3.51-6.62 6.62-14.86 10.27-23.19 10.27Z"
      style="fill: #7e468d"
    /><path
      d="M275.35 216.7c5.34 0 10.38 1.26 14.04 3.66.42.3.72.96.72 1.56 0 .18 0 .3-.06.48l-3.36 9.48c-.18.48-.78 1.02-1.44 1.02-.24 0-.48-.06-.66-.18-1.86-1.2-5.22-2.22-8.64-2.22-7.56 0-11.94 4.68-11.94 12s5.34 11.16 11.64 11.16c4.2 0 8.94-1.86 12.72-5.88.24-.24.6-.36.9-.36.6 0 1.26.36 1.5.84l4.5 8.04c.24.42.42.84.42 1.26 0 .54-.24 1.08-.9 1.74-6.6 6.6-14.22 9.54-21.42 9.54-13.74 0-25.86-10.56-25.86-25.8 0-18.18 13.62-26.34 27.84-26.34m0-5c-8.66 0-16.63 2.67-22.45 7.51-6.8 5.66-10.39 13.9-10.39 23.83 0 17.27 13.55 30.8 30.86 30.8 9 0 17.86-3.91 24.95-11 1.57-1.57 2.36-3.34 2.36-5.28 0-1.24-.35-2.46-1.08-3.74l-4.45-7.95c-1.11-2.07-3.46-3.45-5.89-3.45-1.66 0-3.28.67-4.44 1.83l-.05.05-.05.05c-2.57 2.74-5.88 4.3-9.08 4.3s-6.64-1.62-6.64-6.16 2.27-7 6.94-7c2.7 0 5.05.86 5.92 1.41.99.65 2.16.99 3.38.99 2.66 0 5.18-1.75 6.12-4.26l.02-.04.02-.04 3.36-9.48.02-.04v-.04c.33-.95.33-1.7.33-2.06 0-2.23-1.08-4.39-2.81-5.63l-.08-.06-.08-.05c-4.4-2.89-10.36-4.48-16.78-4.48Z"
      style="fill: #dcc3f1"
    /><path
      d="M334.93 262.97c-1.81 0-13.84-3.12-13.84-16.72 0-4.65-1.51-6.36-2.98-6.98v18.92c0 2.07-1.66 3.76-3.7 3.76h-12c-2.11 0-3.76-1.65-3.76-3.76v-49.08c0-2.07 1.69-3.76 3.76-3.76h12c2.04 0 3.7 1.69 3.7 3.76v13.04c13.32.17 22.37 8.59 22.56 21.06.06 3.74.83 5.72 2.84 7.32 1.32 1.1 1.96 2.27 1.96 3.52 0 1.1-.5 2.14-1.41 2.92l-5.74 4.71c-1.05.86-2.18 1.29-3.39 1.29Z"
      style="fill: #7e468d"
    /><path
      d="M314.41 207.85c.66 0 1.2.6 1.2 1.26v15.6c.72-.06 1.44-.06 2.1-.06 11.28 0 20.28 6.72 20.46 18.6.06 3.9.84 6.9 3.78 9.24.36.3 1.02.9 1.02 1.56 0 .3-.12.66-.54 1.02l-5.7 4.68c-.66.54-1.26.72-1.8.72-.24 0-11.34-2.04-11.34-14.22 0-7.26-3.36-9.84-7.68-9.84h-.3v21.78c0 .72-.54 1.26-1.2 1.26h-12c-.72 0-1.26-.54-1.26-1.26v-49.08c0-.66.54-1.26 1.26-1.26h12m0-5h-12a6.27 6.27 0 0 0-6.26 6.26v49.08c0 3.51 2.75 6.26 6.26 6.26h12c3.42 0 6.2-2.81 6.2-6.26v-2.82c3.74 7.5 11.61 10.1 14.32 10.1 1.77 0 3.49-.64 4.97-1.85l5.71-4.69.04-.03.04-.04c1.47-1.26 2.28-2.97 2.28-4.81 0-1.39-.49-3.46-2.82-5.4l-.04-.04-.05-.04c-1.19-.95-1.84-2.09-1.89-5.4-.2-12.93-9.33-22.21-22.56-23.4V209.1c0-3.45-2.78-6.26-6.2-6.26Z"
      style="fill: #dcc3f1"
    /><path
      d="M372.89 270.66c-.93 0-4.8-.83-8.17-3.34-2.89 1.25-5.98 1.9-9.05 1.9-11.67 0-21.16-8.9-21.16-19.84 0-8.34 6.04-20.08 19.48-20.08 2.73 0 5.54.49 8.04 1.4a5.26 5.26 0 0 1 1.86-.32h.41l10.49.91c3.14.24 4.26 2.37 4.26 4.11v.49l-.17 1.08c-.78 5.05-1.51 9.82-1.51 13.37 0 3.76.79 4.74 1.25 4.99.67.33 2.59 1.29 2.59 3.47 0 .53-.14 1.05-.44 1.66l-3.73 7.28c-1.28 2.42-2.96 2.92-4.14 2.92Zm-16.14-25.32c-2.31 0-3.38 2.52-3.38 4.22s.98 3.74 3.74 3.74c.31 0 .7-.03 1.16-.11-.08-1.12-.12-2.22-.12-3.33 0-1.28.04-2.63.12-4.09-.35-.23-.88-.43-1.52-.43Z"
      style="fill: #7e468d"
    /><path
      d="M353.99 231.8c3 0 5.94.66 8.28 1.68.36-.42.9-.6 1.62-.6h.3l10.38.9c1.56.12 1.98.9 1.98 1.62v.3c-.84 5.46-1.68 10.68-1.68 14.64 0 3.6.66 6.18 2.58 7.2.6.3 1.26.66 1.26 1.26 0 .12-.06.3-.18.54l-3.72 7.26c-.54 1.02-1.14 1.56-1.92 1.56-.6 0-4.8-.96-7.8-3.78-3.12 1.62-6.36 2.34-9.42 2.34-10.02 0-18.66-7.68-18.66-17.34 0-7.2 5.1-17.58 16.98-17.58m3.12 24c1.14 0 2.46-.24 3.84-.84-.18-1.56-.3-3.24-.3-5.1 0-1.56.06-3.18.18-4.98-.72-1.2-2.34-2.04-4.08-2.04-3.78 0-5.88 3.66-5.88 6.72 0 3.36 2.34 6.24 6.24 6.24m-3.12-29c-15.16 0-21.98 13.2-21.98 22.58 0 12.32 10.61 22.34 23.66 22.34 2.95 0 5.92-.54 8.74-1.58 3.33 2.11 6.92 3.02 8.48 3.02s4.39-.55 6.34-4.22l.02-.03.02-.03 3.72-7.26c.5-1 .73-1.9.73-2.82 0-1.61-.63-3.82-3.53-5.47-.12-.35-.31-1.21-.31-2.99 0-3.36.72-8.04 1.48-12.99l.14-.89.06-.38v-.68c0-2.94-2.06-6.26-6.6-6.61l-10.33-.9-.22-.02h-.52c-.66 0-1.26.07-1.81.19-2.57-.83-5.37-1.27-8.09-1.27Z"
      style="fill: #dcc3f1"
    /><path
      d="M420.75 271.28c-2.33 0-13.18-4.26-13.18-16.36v-2.04c0-3.69-1.15-5.35-2.6-6.1l-.98 18.78c-.05 1.94-1.69 3.55-3.64 3.55h-.25l-12-.6c-2.11-.17-3.58-1.78-3.58-3.82v-.13l1.62-31.2c.18-2.04 1.8-3.57 3.7-3.57h.25l6.4.35c2.41-.48 4.67-.71 6.9-.71 13.86 0 23.92 9 23.92 21.4v1.98c0 2.99.7 4.87 2.4 6.47 1.18 1 1.8 2.19 1.8 3.43s-.6 2.31-1.65 3.05v-.02c-.93.8-2.66 2.04-5.89 4.36-.97.76-2.09 1.16-3.24 1.16Z"
      style="fill: #7e468d"
    /><path
      d="M403.42 231.94c12.18 0 21.42 7.44 21.42 18.9v1.98c0 3.36.78 6.06 3.24 8.34.36.3.96.9.96 1.56 0 .36-.18.72-.6 1.02 0 .12-5.94 4.38-5.94 4.38-.6.48-1.2.66-1.74.66-1.08 0-10.68-3.18-10.68-13.86v-2.04c0-6.3-3.06-8.94-7.44-9.18l-1.14 21.78c0 .6-.54 1.14-1.14 1.14h-.12l-12-.6c-.72-.06-1.2-.6-1.2-1.32l1.62-31.2c.06-.66.6-1.2 1.2-1.2h.12l6.72.36c2.34-.48 4.56-.72 6.72-.72m0-5c-2.3 0-4.62.23-7.08.69l-6.1-.33h-.38c-3.17 0-5.89 2.53-6.18 5.75v.09l-.01.1-1.62 31.2v.26c0 3.32 2.49 6.03 5.79 6.3h.08l.08.01 12 .6h.36c3.33 0 6.04-2.66 6.14-5.96l.15-2.89c3.27 7.56 10.78 11.01 14.11 11.01 1.7 0 3.33-.57 4.74-1.66.34-.24 1.62-1.17 2.91-2.1 1.24-.9 2.2-1.6 2.93-2.22 1.71-1.22 2.69-3.07 2.69-5.08s-.93-3.82-2.63-5.29c-1-.95-1.57-2.03-1.57-4.61v-1.98c0-13.85-11.11-23.9-26.42-23.9Z"
      style="fill: #dcc3f1"
    /><path
      d="M445.41 276.56c-3.76 0-7.56-.72-11.01-2.08-1.44-.51-2.29-1.81-2.29-3.48 0-.69.12-1.28.2-1.57l.03-.11 1.96-5.62a4.1 4.1 0 0 1 3.92-2.88c.24 0 .44.03.59.06h.09l.31.08c1.35.35 2.58.52 3.75.52 2.02 0 3.58-.56 4.79-1.76-.4.03-.8.04-1.19.04-12.53 0-20.02-10.7-20.02-21.04 0-9.25 6.02-18.58 19.48-18.58 2.6 0 5.13.4 7.4 1.16.48-.23 1.09-.38 1.84-.38h.47c.1.01 9.83.66 11.16.72 2.28.14 3.95 1.96 3.95 4.24v1.17c-.13 10.27-.25 20.89-1.97 29.78-2.39 12.35-11.16 19.72-23.45 19.72Zm3.42-40.98c-2.49 0-3.38 2.11-3.38 3.92 0 4.3 2.62 4.76 3.74 4.76.65 0 1.55-.26 2.18-.55.08-1.94.12-4.01.12-6.19-.21-1.8-2.08-1.94-2.66-1.94Z"
      style="fill: #7e468d"
    /><path
      d="M446.01 222.64c2.88 0 5.64.54 7.98 1.56.18-.66.72-.78 1.26-.78h.3s9.84.66 11.22.72c.96.06 1.56.84 1.56 1.74-.12 10.56-.18 21.48-1.92 30.48-2.46 12.72-11.64 17.7-21 17.7-3.48 0-6.96-.66-10.14-1.92-.54-.18-.66-.66-.66-1.14 0-.36.06-.72.12-.96l1.92-5.52c.24-.78.9-1.2 1.56-1.2.12 0 .24.06.36.06 1.62.42 3.06.6 4.38.6 5.04 0 7.98-2.88 9.42-7.68-1.86.6-3.9.96-5.82.96-9.18 0-17.52-7.38-17.52-18.54 0-7.26 4.32-16.08 16.98-16.08m3.18 24.12c1.44 0 3.36-.66 4.32-1.44l.3-.18c.12-2.4.18-5.04.18-7.74-.24-2.82-2.58-4.32-5.16-4.32-3.78 0-5.88 3.06-5.88 6.42 0 2.34.96 7.26 6.24 7.26m-3.18-29.12c-15.18 0-21.98 10.59-21.98 21.08 0 8.8 4.4 16.33 11.07 20.37-1.48.79-2.64 2.15-3.2 3.84l-1.9 5.46-.07.21-.05.21c-.1.4-.27 1.22-.27 2.18 0 2.73 1.49 4.94 3.91 5.82 3.73 1.46 7.84 2.24 11.89 2.24 13.39 0 23.31-8.33 25.91-21.75 1.76-9.12 1.88-19.85 2-30.23v-1.14l.01-.03v-.03c0-3.61-2.69-6.51-6.25-6.73h-.1c-1.08-.05-8.38-.53-11.1-.71h-.17l-.17-.01h-.3c-.66 0-1.29.09-1.87.25-2.31-.68-4.81-1.03-7.36-1.03Zm2.92 24.11c-.39-.03-.44-.13-.54-.29-.31-.52-.44-1.38-.44-1.96 0-.94.3-1.42.88-1.42h.16c0 1.26-.02 2.48-.05 3.66Z"
      style="fill: #dcc3f1"
    /><path
      d="M109.01 319.94c-11.99 0-21.04-6.41-21.04-14.92 0-3.28 1.37-7.89 7.44-12.23-3.14-3.48-4.86-7.72-4.86-12.13 0-8.64 6.96-17.38 20.26-17.38s23.14 6.58 23.14 16c0 5.81-3.89 11.55-10.58 15.8.46.4.93.8 1.4 1.2.83-.82 1.58-1.62 2.19-2.3.85-.97 1.87-1.48 2.99-1.48s2.17.52 3.04 1.53l4.73 5.45c.86.97 1.33 2.08 1.33 3.2 0 1.21-.48 2.23-1.95 3.84 1.46 1.26 1.77 1.89 1.77 3.24 0 1.21-.47 2.3-1.32 3.08l-5.34 5.34c-.5.56-1.37 1.16-2.79 1.16s-2.53-.62-5.72-2.83c-7.1 3.43-12.74 3.43-14.68 3.43Zm-1.7-16.36c0 .26.31.58.96.8-.32-.28-.64-.56-.96-.83v.03Zm4.04-24.38c-1.42 0-2.24.6-2.24 1.64 0 .8.41 1.63 1.15 2.33l.38.37 1.6-.95c1.01-.6 1.59-1.35 1.59-2.05 0-.8-1-1.34-2.48-1.34Z"
      style="fill: #7e468d"
    /><path
      d="M110.81 265.78c13.2 0 20.64 6.24 20.64 13.5 0 6.48-5.7 12-12.36 15.36 1.86 1.68 3.84 3.36 5.76 4.98 1.44-1.26 2.76-2.64 3.96-3.96.42-.48.78-.66 1.14-.66.42 0 .78.24 1.14.66l4.74 5.46c.48.54.72 1.08.72 1.56 0 .54-.24 1.26-3.18 4.02q3 2.4 3 3.06c0 .42-.12.9-.54 1.26l-5.46 5.46c-.24.3-.6.36-.96.36-.78 0-1.56-.48-5.52-3.24-6.96 3.72-12.6 3.84-14.88 3.84-11.28 0-18.54-5.88-18.54-12.42 0-3.9 2.52-8.16 8.94-11.82l-.78-.72c-3.78-3.42-5.58-7.68-5.58-11.82 0-7.74 6.36-14.88 17.76-14.88m-.54 20.88 3.24-1.92c1.92-1.14 2.82-2.7 2.82-4.2 0-2.04-1.74-3.84-4.98-3.84-3.06 0-4.74 1.92-4.74 4.14 0 1.38.6 2.88 1.92 4.14l1.74 1.68m-.24 20.46c1.68 0 3.42-.54 4.32-.84-2.46-2.04-4.92-4.2-7.32-6.3-1.44.9-2.22 2.28-2.22 3.6 0 1.8 1.62 3.54 5.22 3.54m.78-46.34c-14.94 0-22.76 10-22.76 19.88 0 4.19 1.34 8.23 3.84 11.74-5.47 4.78-6.42 9.75-6.42 12.62 0 9.93 10.12 17.42 23.54 17.42 1.96 0 7.46 0 14.44-3.07 2.68 1.81 4.03 2.47 5.96 2.47 2.36 0 3.82-1.09 4.59-1.92l5.27-5.27c1.35-1.25 2.1-2.98 2.1-4.89 0-1.42-.31-2.43-.98-3.38.78-1.19 1.16-2.35 1.16-3.7 0-1.72-.68-3.4-1.96-4.86l-4.72-5.44c-.83-.97-1.73-1.57-2.57-1.92 2.69-3.46 4.16-7.29 4.16-11.18 0-8.91-8.02-18.5-25.64-18.5Z"
      style="fill: #dcc3f1"
    /><path
      d="m155.91 343.25-11.83-.66c-2.03-.05-3.73-1.81-3.73-3.88v-.25l2.46-46.75c.04-2.14 1.78-3.8 4-3.8h.14l10.85.6h.31l16.51.9c2.06.05 3.79 1.83 3.79 3.94v.25l-.6 11.29c-.05 2.07-1.83 3.8-3.94 3.8h-.26l-6.62-.36 2.94.3h.06c1.99.32 3.44 1.96 3.44 3.92v.34l-1.34 10.2c-.2 1.99-1.94 3.54-3.98 3.54h-.25l-7.11-.76-.7 13.62c-.16 2.13-1.92 3.75-4 3.75h-.14Z"
      style="fill: #7e468d"
    /><path
      d="m146.81 290.41 10.92.6h.24l16.56.9c.72 0 1.38.66 1.38 1.44v.12l-.6 11.34c0 .72-.66 1.38-1.44 1.38h-.12l-14.4-.78-.24 4.62 10.5 1.08c.78.12 1.32.72 1.32 1.44v.18l-1.32 10.08c-.06.72-.72 1.32-1.5 1.32h-.12l-9.6-1.02-.84 16.26c-.06.78-.72 1.38-1.5 1.38l-11.88-.66c-.72 0-1.32-.66-1.32-1.38v-.12l2.46-46.8c0-.78.66-1.38 1.5-1.38m.14-5h-.14c-3.52 0-6.4 2.76-6.5 6.2l-2.46 46.72v.38c0 3.45 2.73 6.28 6.13 6.38l11.79.66h.28c3.38 0 6.23-2.63 6.49-6v-.12l.57-10.99 4.35.46.26.03h.39c3.3 0 6.11-2.51 6.47-5.74l1.31-10.01.04-.32v-.51c0-.56-.07-1.11-.21-1.63 2.6-.77 4.51-3.13 4.59-5.93l.6-11.26v-.38c0-3.49-2.76-6.34-6.2-6.44l-16.47-.9h-.38l-10.78-.59h-.14Z"
      style="fill: #dcc3f1"
    /><path
      d="M187.46 334.37c-2.11 0-3.77-1.58-3.82-3.62l-1.68-31.22v-.07c0-2.08 1.61-3.77 3.62-3.82l6.6-.34c3.3-1.01 6.6-1.52 9.8-1.52 2.15 0 4.31.24 6.43.72 2.04.54 3.21 1.98 3.21 3.88 0 .46-.08.84-.14 1.14l-1.77 8.6c-.42 1.96-2 3.26-3.95 3.26-.48 0-.91-.11-1.25-.19l-.16-.04c-.78-.24-1.54-.37-2.25-.37h-.02l1.02 19.03v.19c0 2.01-1.61 3.65-3.61 3.7l-11.96.66h-.07Z"
      style="fill: #7e468d"
    /><path
      d="M201.98 296.29c2.04 0 4.02.24 5.88.66.9.24 1.26.72 1.26 1.44 0 .24-.06.48-.12.78l-1.74 8.46c-.18.84-.78 1.26-1.5 1.26-.18 0-.42-.06-.66-.12-.96-.3-1.98-.48-3-.48-.84 0-1.68.12-2.64.36l1.14 21.24v.12c0 .66-.54 1.2-1.2 1.2l-11.94.66c-.72 0-1.32-.48-1.32-1.2l-1.68-31.2c0-.72.54-1.32 1.2-1.32l6.96-.36c3.24-1.02 6.36-1.5 9.36-1.5m0-5c-3.35 0-6.79.52-10.23 1.54l-6.27.32c-3.34.1-6.02 2.89-6.02 6.32v.27l1.68 31.11c.09 3.39 2.84 6.02 6.32 6.02h.28l11.85-.66c3.33-.1 6.01-2.84 6.01-6.2v-.39l-.86-15.82c.3.05.64.08 1.02.08 3.15 0 5.72-2.1 6.39-5.21l1.75-8.5.03-.14c.08-.37.19-.94.19-1.65 0-3.05-1.9-5.45-4.97-6.27l-.09-.02-.09-.02c-2.3-.52-4.65-.78-6.98-.78Z"
      style="fill: #dcc3f1"
    /><path
      d="M217.04 334.25c-1.92 0-3.51-1.49-3.69-3.47l-1.51-29.38v-.06c0-1.35.65-2.51 1.67-3.19-2.42-2.08-3.95-5.15-3.95-8.57 0-6.27 5.1-11.38 11.38-11.38s11.32 5.11 11.32 11.38c0 2.97-1.15 5.68-3.04 7.71 1.19.59 2.04 1.81 2.07 3.19l1.5 29.3v.18c0 1.88-1.49 3.5-3.39 3.69h-.12l-12.06.61h-.18Z"
      style="fill: #7e468d"
    /><path
      d="M220.94 280.69c4.86 0 8.82 3.96 8.82 8.88s-3.96 8.82-8.82 8.82-8.88-3.96-8.88-8.82 3.96-8.88 8.88-8.88m6.72 18.72c.6 0 1.14.54 1.14 1.14l1.5 29.28v.12c0 .6-.54 1.14-1.14 1.2l-12 .6h-.12c-.66 0-1.14-.54-1.2-1.2l-1.5-29.22c0-.72.48-1.26 1.2-1.32l12-.6h.12m-6.72-23.72c-7.65 0-13.88 6.23-13.88 13.88 0 3.28 1.15 6.29 3.07 8.66a6.32 6.32 0 0 0-.79 3.1v.26l1.51 29.22v.1l.01.1c.3 3.28 2.95 5.75 6.18 5.75h.37l12-.61h.12l.12-.02c3.17-.31 5.65-3.03 5.65-6.18v-.38l-1.5-29.2a6.175 6.175 0 0 0-1.17-3.43c1.35-2.13 2.13-4.66 2.13-7.37 0-7.65-6.2-13.88-13.82-13.88Z"
      style="fill: #dcc3f1"
    /><path
      d="M256.16 335.09c-15.07 0-22.96-10.52-22.96-20.92 0-9.67 6.96-20.08 22.24-20.08 14.24 0 18.04 11.15 18.04 17.74 0 4.22-2.21 7.19-6.38 8.61-1.01.35-2.17.64-3.37.9.67.68 1.11 1.61 1.11 2.73 0 1.6-2.65 7.67-2.67 7.73l-.05.11c-1.31 2.63-3.57 3.18-5.24 3.18h-.72Z"
      style="fill: #7e468d"
    /><path
      d="M255.44 296.59c14.88 0 15.54 13.26 15.54 15.24 0 2.76-1.14 5.04-4.68 6.24-2.82.96-7.26 1.62-10.38 1.74-.96 0-1.26-.42-1.5-1.14-.72-1.98-1.86-5.88-1.86-6.12 0-.66.48-.96 1.26-1.14 3.12-.72 3.54-.84 3.54-1.68 0-.54-1.14-2.46-3.66-2.46-2.88 0-5.28 2.52-5.28 6.24 0 4.26 3.12 9.06 10.62 9.06.42 0 .9 0 1.32-.06h.12c.84 0 1.86.54 1.86 1.56 0 .6-1.56 4.68-2.46 6.72-.48.96-1.26 1.8-3 1.8h-.72c-13.62 0-20.46-9.3-20.46-18.42 0-8.58 6.06-17.58 19.74-17.58m0-5c-17 0-24.74 11.7-24.74 22.58 0 11.64 8.75 23.42 25.46 23.42h.72c3.35 0 6-1.62 7.47-4.56l.05-.11.05-.11c.87-1.97 2.89-6.75 2.89-8.74 0-.36-.03-.71-.09-1.05.22-.07.45-.14.66-.21 5.2-1.76 8.07-5.66 8.07-10.97 0-7.52-4.33-20.24-20.54-20.24Z"
      style="fill: #dcc3f1"
    /><path
      d="M310.69 335.63c-2.33 0-13.18-4.26-13.18-16.36v-2.04c0-3.69-1.15-5.35-2.6-6.1l-.98 18.78c-.05 1.94-1.69 3.56-3.64 3.56h-.25l-12-.6c-2.11-.17-3.58-1.78-3.58-3.82v-.13l1.62-31.2c.18-2.04 1.8-3.57 3.7-3.57h.25l6.4.35c2.41-.47 4.67-.71 6.9-.71 13.86 0 23.92 9 23.92 21.4v1.98c0 2.99.7 4.87 2.4 6.47 1.18 1 1.8 2.19 1.8 3.43s-.6 2.31-1.65 3.06v-.02c-.93.8-2.66 2.04-5.89 4.36-.97.76-2.09 1.16-3.24 1.16Z"
      style="fill: #7e468d"
    /><path
      d="M293.36 296.29c12.18 0 21.42 7.44 21.42 18.9v1.98c0 3.36.78 6.06 3.24 8.34.36.3.96.9.96 1.56 0 .36-.18.72-.6 1.02 0 .12-5.94 4.38-5.94 4.38-.6.48-1.2.66-1.74.66-1.08 0-10.68-3.18-10.68-13.86v-2.04c0-6.3-3.06-8.94-7.44-9.18l-1.14 21.78c0 .6-.54 1.14-1.14 1.14h-.12l-12-.6c-.72-.06-1.2-.6-1.2-1.32l1.62-31.2c.06-.66.6-1.2 1.2-1.2h.12l6.72.36c2.34-.48 4.56-.72 6.72-.72m0-5c-2.3 0-4.62.23-7.08.69l-6.1-.33h-.38c-3.17 0-5.89 2.52-6.18 5.75v.1l-.01.1-1.62 31.2v.26c0 3.32 2.49 6.03 5.79 6.3h.08l.08.01 12 .6h.37c3.32 0 6.04-2.66 6.14-5.96l.15-2.89c3.27 7.56 10.78 11 14.11 11 1.69 0 3.33-.57 4.74-1.66.34-.24 1.62-1.17 2.91-2.1 1.24-.9 2.2-1.6 2.93-2.22 1.71-1.22 2.69-3.07 2.69-5.08s-.93-3.82-2.63-5.29c-1-.95-1.57-2.03-1.57-4.61v-1.98c0-13.85-11.11-23.9-26.42-23.9Z"
      style="fill: #dcc3f1"
    /><path
      d="M358.56 334.97h-.13c-.22-.04-4.83-.55-8.62-3.41-3.13 1.45-6.47 2.21-9.78 2.21-11.63 0-21.1-8.9-21.1-19.84 0-8.34 6.04-20.08 19.48-20.08 1.85 0 3.56.24 5.03.56l.87-12.99c.13-2.28 2.12-3.95 4.71-3.95l10.42.18c3.18 0 4.62 2.07 4.62 4.12v.37l-.03.19c-.13 1.1-2.01 25.57-2.01 29.56 0 5.98 1.18 7.15 1.68 7.37.86.39 2.81 1.28 2.81 3.43 0 .3 0 .95-.38 1.66l-3.18 7.37c-1.13 2.68-2.95 3.25-4.27 3.25h-.13Zm-17.45-25.02c-2.12 0-3.38 2.12-3.38 4.16 0 1.86 1.14 3.74 3.68 3.74.54 0 1.13-.09 1.76-.27-.25-2.19-.39-4.56-.41-7.17-.35-.23-.94-.46-1.65-.46Z"
      style="fill: #7e468d"
    /><path
      d="m349.03 279.97 10.38.18c1.68 0 2.16.78 2.16 1.62v.18c-.12.78-2.04 25.8-2.04 29.94 0 4.92.72 8.58 3.18 9.66.66.3 1.32.6 1.32 1.14 0 .18 0 .36-.12.54l-3.24 7.5c-.48 1.14-1.08 1.74-1.98 1.74 0 0-5.16-.54-8.52-3.9-3.36 1.86-6.84 2.7-10.14 2.7-10.02 0-18.6-7.68-18.6-17.34 0-7.32 5.1-17.58 16.98-17.58 2.58 0 5.16.54 7.32 1.32l1.08-16.08c.06-1.02 1.02-1.62 2.22-1.62m-7.62 40.38c1.32 0 2.82-.36 4.5-1.14-.42-2.7-.66-5.88-.66-9.72-.66-1.2-2.34-2.04-4.14-2.04-3.6 0-5.88 3.3-5.88 6.66s2.34 6.24 6.18 6.24m7.66-45.38h-.04c-3.96 0-7 2.66-7.21 6.33l-.69 10.2c-.87-.1-1.78-.15-2.72-.15-13.76 0-21.98 11.48-21.98 22.58 0 12.32 10.59 22.34 23.6 22.34 3.2 0 6.43-.64 9.5-1.87 3.93 2.48 8.08 2.98 8.64 3.04l.26.03h.26c1.37 0 4.76-.47 6.59-4.8l3.13-7.25c.62-1.22.62-2.33.62-2.73 0-2.39-1.31-4.24-3.89-5.52-.2-.45-.6-1.81-.6-5.28s1.76-27.06 2-29.26l.04-.29v-.56c0-3.28-2.44-6.6-7.11-6.62l-10.35-.18h-.04Zm-8.65 39.96c-.11-.18-.19-.44-.19-.82 0-.23.04-.48.1-.71.02.52.05 1.03.09 1.53Z"
      style="fill: #dcc3f1"
    /><path
      d="M371.59 334.97c-.99 0-3.6 0-4.64-2.93l-2.66-7.01c-.11-.32-.25-.75-.25-1.26 0-1.62 1.16-3.52 4.42-3.52 1.5-.03 2.27-.42 2.59-.68-.22-.33-.57-.79-.83-1.12l-.07-.09-1.56-1.73c-2.94-3.34-4.36-6.45-4.36-9.53 0-8.06 10.24-12.88 20.14-12.88 1.92 0 4.55 0 5.69 2.91l2.67 6.88c.32.71.32 1.29.32 1.58 0 1.64-1.23 3.4-3.94 3.4h-.24c-1.1 0-1.79.13-2.19.26.56.78 1.69 2.03 2.25 2.64 3.05 3.32 4.61 6.57 4.61 9.66 0 9.16-12.7 13.42-21.28 13.42h-.66Z"
      style="fill: #7e468d"
    /><path
      d="M384.37 296.71c2.34 0 2.94.24 3.36 1.32l2.7 6.96c.12.24.12.42.12.6 0 .66-.66.9-1.44.9h-.24c-3.6 0-4.98 1.2-4.98 2.4 0 1.02.9 2.16 3.18 4.68 2.76 3 3.96 5.7 3.96 7.98 0 7.08-10.74 10.92-18.78 10.92h-.66c-1.32 0-1.92-.24-2.28-1.26l-2.64-6.96c-.06-.18-.12-.36-.12-.48 0-.9 1.2-1.02 1.92-1.02 3.54-.06 5.22-1.74 5.22-3.18 0-.78-.78-1.74-1.62-2.82l-1.62-1.8c-2.64-3-3.72-5.58-3.72-7.86 0-6.78 9.78-10.38 17.64-10.38m0-5c-4.94 0-10.06 1.16-14.04 3.19-5.55 2.83-8.6 7.16-8.6 12.19 0 3.62 1.54 7.18 4.71 10.87-3.35.75-4.89 3.36-4.89 5.81 0 .92.24 1.64.37 2.03l.03.1.04.12 2.62 6.92c.76 2.08 2.58 4.53 6.97 4.53h.66c9.87 0 23.78-4.94 23.78-15.92 0-3.44-1.51-6.95-4.48-10.46 2.22-.77 4-2.62 4-5.5 0-.39 0-1.37-.51-2.54l-2.65-6.82c-1.76-4.51-5.99-4.51-8.02-4.51Z"
      style="fill: #dcc3f1"
    /><path
      d="M413.29 340.73c-.24 0-.49 0-.73-.03-6.21-.43-10.92-5.77-10.5-11.92.25-3.71 2.3-6.91 5.24-8.78-1.27-.62-2.13-1.93-2.15-3.45-.04-6.11.11-21.68.63-30.08.14-2 1.78-3.56 3.73-3.56h.25l13.54.93c1.93.13 3.15 1.26 3.63 3.35.38 1.68.41 4.53.09 9.23-.64 9.32-2.72 18.22-3.59 21.62-.35 1.48-1.42 2.59-2.77 2.96 2.58 2.22 4.12 5.57 3.88 9.2-.4 5.9-5.34 10.53-11.25 10.53Z"
      style="fill: #7e468d"
    /><path
      d="M409.51 285.42h.09l13.54.93c1.12.08 2.04.38 1.39 9.91-.51 7.48-2.06 15.47-3.52 21.17-.16.67-.63 1.21-1.35 1.21h-.1l-10.66-.73c-.76-.05-1.25-.68-1.26-1.39-.03-5.56.1-21.4.62-29.88.05-.68.57-1.21 1.24-1.21m3.79 35.35c.19 0 .37 0 .56.02 5 .34 8.49 4.72 8.18 9.25-.33 4.8-4.42 8.2-8.75 8.2-.19 0-.37 0-.56-.02-5-.34-8.49-4.72-8.18-9.25.33-4.8 4.42-8.2 8.75-8.2m-3.79-40.35c-3.27 0-6 2.58-6.23 5.87-.52 8.49-.67 24.14-.63 30.25v.06c.02 1.19.35 2.29.91 3.23a13.76 13.76 0 0 0-4 8.79c-.51 7.52 5.24 14.06 12.83 14.58.3.02.6.03.9.03 7.21 0 13.25-5.65 13.74-12.85.23-3.31-.76-6.43-2.59-8.94.66-.78 1.16-1.73 1.42-2.81.89-3.48 3-12.54 3.65-22.04.34-5.02.3-7.99-.14-9.95-.72-3.16-2.87-5.08-5.9-5.29l-13.54-.93c-.15 0-.29-.01-.43-.01Z"
      style="fill: #dcc3f1"
    /></g><g style="filter: url(#c)"><path
      d="M120.12 185.95a5.1 5.1 0 0 1-3.8-1.71l-2.97-3.37c-.6 1.03-1.62 1.7-2.93 1.87L96.24 185h-.04c-.15.03-.37.06-.63.06-1.91 0-3.48-1.04-4.12-2.66-.09.16-.18.32-.28.48-1.1 1.76-2.78 2.71-4.75 2.71-.68 0-1.39-.12-2.31-.4l-7.76-2.65-.06-.02c-1.48-.59-2.4-1.89-2.4-3.38 0-.84.25-1.6.72-2.2 2.14-3.33 2.45-4.54 2.49-4.84l.27-1.59-1.62.28c-.47.11-.89.11-1.13.11-2.76 0-4.92-2.11-4.92-4.8l-.18-15.9c0-2.99 2.07-5.06 5.04-5.06l4.29.04-.11-1.72-4.87.73h-.54c-1.97 0-3.43-1.28-3.71-3.27l-.91-7.52v-.45c0-1.91 1.22-3.29 3.18-3.59l12.47-1.54c.54-.08 1.02-.08 1.49-.08 4.37 0 7.51 2.54 8.36 6.59.54-5.47 4.38-7.94 8.16-7.94h.12l21.91.65c2.16 0 3.66 1.48 3.66 3.68l-.24 7.28c0 2.02-1.56 3.6-3.62 3.6h-.22c.27.5.42 1.09.42 1.75l-.12 2.95c0 .55-.12 1.06-.31 1.51.73.57 1.21 1.44 1.31 2.51l.19 2.98v.2c0 .81-.24 1.53-.66 2.1h.03c2.75 0 3.82 1.78 3.93 3.45l.24 5.89v.18c0 1.79-1.04 3.18-2.58 3.57l1.13.97c.96.82 1.52 1.99 1.52 3.19 0 .81-.28 1.62-.77 2.28.74.82 1.12 1.79 1.12 2.74 0 1.18-.52 2.28-1.43 3.04l-4.38 3.79-.05.04c-1.01.78-2.26 1.23-3.42 1.23ZM94.4 170.83h.04l-.02-.42-.02.42Zm-6.26-13.69c1.25.1 2.32.45 3.2.97.53-.79 1.37-1.3 2.43-1.44l.02-.96c-.9.93-2.23 1.44-3.87 1.44h-1.77Zm-3.19.17.89-.13c.24-.03.47-.05.69-.07h-1.59v.19Z"
      style="fill: #fff"
    /><path
      d="m102.48 128.87 21.83.65c.83 0 1.24.35 1.24 1.18l-.24 7.2c0 .71-.41 1.18-1.12 1.18h-.12l-14.22-.59h-.12c-1.18 0-1.53.94-1.53 1.89l-.06 1.53 12.63.41c.71 0 1.12.29 1.12 1l-.12 2.89c0 .71-.35 1.06-1.06 1.06l-12.69-.41-.06 3.48 13.63-.77h.18c.59 0 .94.29 1 .94l.18 2.83v.12c0 .65-.35.94-1 1l-14.1.77-.12 3.42 17.17-.59c.83 0 1.3.24 1.36 1.12l.24 5.72v.18c0 .71-.35 1.18-1 1.18l-17.35.59.24 4.72 2.06-.24c.24 0 .41 0 .59.06l4.19-3.42c.29-.29.59-.41.88-.41.35 0 .71.24 1.06.53l2.18 2.01 1.53-1.53c.24-.24.47-.29.77-.29s.59.06.83.29l3.42 2.95c.41.35.65.83.65 1.3 0 .3-.12.65-.41.94l-1.36 1.48 1.59 1.48c.35.35.53.77.53 1.12 0 .41-.18.83-.53 1.12l-4.37 3.78c-.53.41-1.24.71-1.89.71-.71 0-1.42-.29-1.95-.88l-6.61-7.49-.12 3.66c-.06.89-.47 1.42-1.36 1.53l-14.04 2.24c-.18 0-.3.06-.47.06-.94 0-1.71-.47-1.89-1.42l-.94-6.2v-.35c0-.71.35-1.06 1.12-1.18l3.19-.41-.29-5.78-1.77.06c-.83 0-1.36-.29-1.42-1.12l-.35-5.61v-.18c0-1 .41-1.24 1.12-1.24l1.89-.06.41-23.54c.06-4.96 3.13-6.67 5.72-6.67h.12m-16.64 1.36c3.13 0 5.84 1.71 6.08 5.84l.71 15.58v.35c0 1.89-1 2.66-2.71 2.66l-7.49-.06.06 5.61 3.72-.53c.41-.06.83-.06 1.18-.06 3.6 0 4.78 2.54 4.78 4.66v.29l-.35 8.62c-.06 2.06-.83 5.13-2.77 8.44-.59.94-1.48 1.48-2.6 1.48-.47 0-1-.12-1.59-.29l-7.61-2.6c-.59-.24-.83-.65-.83-1.06 0-.24.06-.53.24-.71 1.83-2.83 2.77-4.78 2.95-5.96l.53-3.13c0-.12.06-.24.06-.35 0-.83-.59-1.24-1.42-1.24-.12 0-.24.06-.41.06l-3.13.53c-.18.06-.41.06-.59.06-1.42 0-2.42-1-2.42-2.3l-.18-15.93c0-1.36.77-2.54 2.54-2.54l6.96.06-.35-5.31c-.06-1.06-.65-1.59-1.53-1.59-.12 0-.24.06-.41.06l-5.55.83h-.35c-.65 0-1.12-.29-1.24-1.12l-.89-7.32v-.29c0-.65.3-1 1.06-1.12l12.39-1.53c.41-.06.77-.06 1.18-.06m16.71-6.36h-.19c-3.18 0-6.53 1.41-8.62 4.42-1.95-1.94-4.69-3.06-7.9-3.06-.49 0-1.09 0-1.83.1l-12.35 1.53h-.07l-.07.02c-3.17.49-5.3 2.93-5.3 6.06v.6l.04.3.89 7.32v.05l.01.05c.22 1.52.88 2.8 1.85 3.74-1.23 1.33-1.96 3.13-1.96 5.17v.06l.18 15.91c.02 3.82 2.87 6.86 6.65 7.23-.3.55-.72 1.25-1.28 2.14-.76 1.02-1.18 2.28-1.18 3.64 0 2.54 1.52 4.73 3.97 5.7l.12.05.12.04 7.61 2.6.09.03.09.03c1.17.35 2.1.51 3.03.51 1.9 0 3.66-.63 5.06-1.79 1.14.8 2.55 1.26 4.08 1.26.32 0 .59-.03.83-.06h.04l.39-.06 14-2.23a6.81 6.81 0 0 0 2.33-.77l1.26 1.43.02.02.02.02a7.653 7.653 0 0 0 5.66 2.54c1.74 0 3.5-.63 4.96-1.76l.1-.08.1-.09 4.34-3.76a6.436 6.436 0 0 0 2.28-4.92c0-1.02-.25-2.01-.72-2.92.24-.67.37-1.38.37-2.09 0-1.4-.46-2.76-1.29-3.89.78-1.04 1.23-2.36 1.23-3.83v-.38l-.24-5.72v-.12c-.16-2.36-1.4-4.2-3.3-5.12v-.7l-.19-2.83v-.07l-.01-.07a6.14 6.14 0 0 0-1.04-2.94c.04-.25.06-.51.06-.78l.12-2.82v-.06c2.02-.98 3.39-3.03 3.43-5.46l.23-7.14v-.16c0-3.55-2.58-6.13-6.14-6.18l-21.78-.65h-.07Z"
      style="fill: #895bc7"
    /><path
      d="M164.07 186.31c-.92 0-1.71-.11-2.43-.34l-9.58-2.63c-1.56-.38-2.65-1.73-2.65-3.31 0-.65.18-1.25.5-1.77l-.73.83c-.96 1.15-2.58 1.85-4.41 1.85-.96 0-1.86-.17-2.76-.53l-7.01-3.17c-1.48-.74-2.35-2.07-2.35-3.52 0-1.02.45-2.08 1.2-2.83l3.84-3.99c-.31-.12-.62-.28-.92-.48l-5.74-3.91c-1.11-.79-1.74-1.95-1.74-3.13s.54-2.25 1.49-3.04l1.99-1.77a3.196 3.196 0 0 1-1.89-2.92c0-.71.26-1.22.38-1.47l4.17-7.94h-.4c-2.36 0-3.86-1.49-3.86-3.87l.18-6.97c.11-2.54 1.5-3.91 3.92-3.91l14.52.26c.56-1.87 2.13-2.56 3.48-2.56h.29l12.69.59c1.65.12 2.89 1 3.42 2.28l15.39.26c2.23 0 3.81 1.56 3.81 3.8l-.24 7.51c0 2.16-1.56 3.72-3.8 3.72l-1.74-.04c.03.18.05.36.05.55 0 .12 0 .32-.05.58l2.46.74c1.42.47 2.37 1.79 2.37 3.22 0 .58-.15.99-.23 1.22l-.03.1-.06.15-1.5 3.49-.03.06c-.27.54-.68 1-1.17 1.33l1.11.62a3.75 3.75 0 0 1 1.92 3.3c0 1.05-.42 2.08-1.16 2.84 0 0-4.52 4.94-4.56 4.98.4.87.58 1.78.58 2.63 0 .23-.01.46-.04.7l1.85.43c2.62.71 2.9 2.63 2.9 3.42 0 .51-.1 1.06-.31 1.68l-.05.13-2.71 6.84c-.64 1.66-2.21 2.7-4.09 2.7-.3 0-.72 0-1.26-.13l-7.76-1.79c-.08.06-.15.12-.23.18-.64.51-1.31 1.03-2.02 1.55-1.32.94-3.18 1.49-5.02 1.49Zm3.91-24.96-.44-.29c-.32-.19-.6-.45-.83-.75-.41.35-.89.62-1.42.8l2.69.23Z"
      style="fill: #fff"
    /><path
      d="m153.45 127.69 12.69.59c.83.06 1.3.47 1.3 1.18v1.06l17.58.29c.89 0 1.36.41 1.36 1.3l-.24 7.44c0 .88-.47 1.3-1.3 1.3l-18.53-.41-.65 16.88c-.06.88-.83 1.48-1.71 1.53l-8.91.41 4.72 1.48c.59.18.88.65.88 1.18 0 .3-.18.65-.41.94l-.29.29 14.22 1.24c3.95.35 6.14 2.24 6.14 4.72 0 .77-.24 1.65-.71 2.54l4.37 1c.65.18 1.06.41 1.06 1 0 .24-.06.53-.18.89l-2.71 6.84c-.3.77-1 1.12-1.77 1.12-.24 0-.41 0-.65-.06l-8.97-2.07c-1 .77-2.01 1.59-3.13 2.42-.83.59-2.18 1-3.54 1-.59 0-1.18-.06-1.71-.24l-9.68-2.66c-.53-.12-.77-.53-.77-.89 0-.29.12-.53.35-.65 1.36-.83 2.6-1.65 3.72-2.42l-6.84-1.59-1.83 2.06c-.59.71-1.59 1-2.54 1-.65 0-1.24-.12-1.83-.35l-6.9-3.13c-.59-.29-.88-.77-.88-1.24 0-.35.18-.77.47-1.06l13.33-13.87c.59-.59 1.12-.83 1.65-.83.24 0 .47 0 .77.12l.59.18c-.06-.18-.06-.35-.06-.59l.65-17.52-17.47-.41c-1.12 0-1.42-.41-1.42-1.36l.18-6.9c.06-1.3.47-1.48 1.42-1.48l16.76.29.06-1.24c.06-1 .47-1.36 1.18-1.36h.18m9.03 44.84c.59-.47 1.12-.88 1.42-1.18.29-.29.47-.65.47-.94 0-.41-.35-.83-1-.89l-8.2-.94-1.89 2.12 9.21 1.83m-22.83-31.15 7.38 1.24c.41.12.77.41.77.77 0 .12-.06.3-.12.41l-.94 1.89 4.19 1.3c.35.06.53.35.53.71 0 .18-.06.29-.12.47l-1.53 3.3a.98.98 0 0 1-.88.53c-.18 0-.35-.06-.53-.12l-3.95-1.53-.89 1.77 4.25 2.71c.35.18.53.59.53 1.06 0 .3-.12.65-.35.89l-7.32 7.32c-.35.35-.89.59-1.42.59-.35 0-.71-.12-1.06-.35l-5.72-3.89c-.41-.29-.65-.71-.65-1.06 0-.41.24-.83.59-1.12l5.66-5.02-4.01-.88c-.41-.06-.65-.35-.65-.71 0-.12.06-.24.12-.35l4.96-9.44c.18-.35.59-.47.94-.47h.24m32.81.59 7.44 1.12c.53.12.77.41.77.77 0 .12 0 .18-.06.29l-.83 1.89 5.07 1.53c.35.12.59.47.59.83 0 .18-.06.29-.12.47l-1.47 3.42c-.18.35-.59.59-1 .59-.12 0-.29-.06-.47-.12l-4.78-1.83-.88 2.07 8.08 4.54c.41.24.65.65.65 1.12 0 .41-.18.83-.47 1.12l-4.48 4.9c-.41.47-.83.65-1.24.65s-.83-.18-1.18-.41l-9.15-5.96c-.29-.18-.41-.53-.41-.88 0-.41.12-.77.41-1.06l3.3-3.07-4.6-.71a.763.763 0 0 1-.65-.77c0-.06 0-.18.06-.29l4.25-9.68c.18-.35.59-.53 1-.53h.18m-18.88-19.28h-.29c-2.12 0-3.9.96-5 2.53l-12.91-.23h-.08c-3.78 0-6.24 2.39-6.41 6.25v.1l-.18 6.9v.12c0 2.53 1.15 4.51 3.05 5.55l-2.65 5.04-.02.04-.02.04a5.623 5.623 0 0 0 .09 5.41h-.01c-1.47 1.27-2.32 3.05-2.32 4.91 0 1.99 1.03 3.9 2.74 5.13l.05.03.05.03 4.13 2.81-1.71 1.78c-1.2 1.23-1.89 2.88-1.89 4.55 0 2.4 1.4 4.59 3.65 5.71l.09.04.09.04 6.9 3.13.1.05.1.04c1.2.48 2.4.71 3.69.71 1.03 0 2.01-.16 2.92-.47.78 1.36 2.11 2.38 3.73 2.79l9.5 2.61c.95.3 1.98.44 3.14.44 2.38 0 4.73-.71 6.45-1.93l.03-.02.03-.02c.48-.35.93-.7 1.36-1.04l6.61 1.52c.81.19 1.43.19 1.8.19 2.9 0 5.42-1.7 6.44-4.32l2.7-6.8.05-.13.04-.13c.29-.87.43-1.68.43-2.47 0-2.19-1.25-4.87-4.75-5.83l-.06-.02c-.03-.25-.08-.5-.13-.75l3.52-3.85c1.17-1.22 1.83-2.87 1.83-4.55s-.72-3.37-1.94-4.54l1.41-3.27.08-.19.07-.2c.11-.32.38-1.05.38-2.07 0-1.5-.57-2.9-1.53-3.96 1.36-1.12 2.21-2.82 2.24-4.79l.23-7.38v-.16c0-3.63-2.65-6.27-6.3-6.3l-13.99-.23c-1.06-1.3-2.68-2.15-4.58-2.29h-.12l-12.69-.59h-.12Z"
      style="fill: #895bc7"
    /><path
      d="M205.38 218.02c-.92 0-1.71-.11-2.43-.34l-9.58-2.63c-1.56-.38-2.65-1.73-2.65-3.31 0-.65.18-1.25.5-1.77l-.73.83c-.96 1.15-2.58 1.85-4.41 1.85-.96 0-1.86-.17-2.76-.53l-7.01-3.17c-1.48-.74-2.35-2.07-2.35-3.52 0-1.02.45-2.08 1.2-2.83l3.84-3.99a4.42 4.42 0 0 1-.91-.48l-5.75-3.91c-1.11-.79-1.74-1.95-1.74-3.13s.54-2.25 1.49-3.04l1.99-1.77a3.196 3.196 0 0 1-1.89-2.92c0-.7.25-1.21.38-1.46l4.17-7.95h-.4c-2.36 0-3.86-1.49-3.86-3.87l.18-6.97c.12-2.54 1.51-3.91 3.92-3.91l14.52.26c.56-1.87 2.13-2.56 3.48-2.56h.29l12.69.59c1.65.12 2.89 1 3.42 2.28l15.39.26c2.23 0 3.81 1.56 3.81 3.8l-.24 7.52c0 2.16-1.56 3.72-3.8 3.72l-1.74-.04c.03.18.05.36.05.55 0 .12 0 .32-.05.58l2.46.74c1.42.47 2.37 1.79 2.37 3.22 0 .58-.15.99-.23 1.22l-.03.1-.06.15-1.5 3.49-.03.06c-.27.54-.68 1-1.17 1.33l1.1.62a3.75 3.75 0 0 1 1.92 3.3c0 1.05-.42 2.08-1.16 2.84 0 0-4.52 4.94-4.56 4.98.4.87.58 1.78.58 2.63 0 .23-.01.46-.04.7l1.85.43c2.62.71 2.9 2.63 2.9 3.42 0 .51-.1 1.06-.31 1.68l-.05.13-2.71 6.84c-.64 1.66-2.21 2.7-4.09 2.7-.31 0-.72 0-1.26-.14l-7.76-1.79c-.07.06-.15.12-.22.17-.65.51-1.31 1.03-2.02 1.56-1.32.94-3.18 1.49-5.02 1.49Zm3.91-24.96-.44-.29c-.32-.19-.6-.45-.83-.75-.41.35-.89.62-1.42.8l2.69.23Z"
      style="fill: #fff"
    /><path
      d="m194.76 159.41 12.69.59c.83.06 1.3.47 1.3 1.18v1.06l17.58.29c.89 0 1.36.41 1.36 1.3l-.24 7.44c0 .88-.47 1.3-1.3 1.3l-18.53-.41-.65 16.88c-.06.88-.83 1.48-1.71 1.53l-8.91.41 4.72 1.48c.59.18.88.65.88 1.18 0 .3-.18.65-.41.94l-.29.29 14.22 1.24c3.95.35 6.14 2.24 6.14 4.72 0 .77-.24 1.65-.71 2.54l4.37 1c.65.18 1.06.41 1.06 1 0 .24-.06.53-.18.89l-2.71 6.84c-.3.77-1 1.12-1.77 1.12-.24 0-.41 0-.65-.06l-8.97-2.07c-1 .77-2.01 1.59-3.13 2.42-.83.59-2.18 1-3.54 1-.59 0-1.18-.06-1.71-.24l-9.68-2.66c-.53-.12-.77-.53-.77-.89 0-.29.12-.53.35-.65 1.36-.83 2.6-1.65 3.72-2.42l-6.84-1.59-1.83 2.06c-.59.71-1.59 1-2.54 1-.65 0-1.24-.12-1.83-.35l-6.9-3.13c-.59-.29-.88-.77-.88-1.24 0-.35.18-.77.47-1.06l13.33-13.87c.59-.59 1.12-.83 1.65-.83.24 0 .47 0 .77.12l.59.18c-.06-.18-.06-.35-.06-.59l.65-17.52-17.47-.41c-1.12 0-1.42-.41-1.42-1.36l.18-6.9c.06-1.3.47-1.48 1.42-1.48l16.76.29.06-1.24c.06-1 .47-1.36 1.18-1.36h.18m9.03 44.84c.59-.47 1.12-.88 1.42-1.18.29-.29.47-.65.47-.94 0-.41-.35-.83-1-.89l-8.2-.94-1.89 2.12 9.21 1.83m-22.83-31.15 7.38 1.24c.41.12.77.41.77.77 0 .12-.06.3-.12.41l-.94 1.89 4.19 1.3c.35.06.53.35.53.71 0 .18-.06.29-.12.47l-1.53 3.3a.98.98 0 0 1-.88.53c-.18 0-.35-.06-.53-.12l-3.95-1.53-.88 1.77 4.25 2.71c.35.18.53.59.53 1.06 0 .3-.12.65-.35.89l-7.32 7.32c-.35.35-.88.59-1.42.59-.35 0-.71-.12-1.06-.35l-5.72-3.89c-.41-.29-.65-.71-.65-1.06 0-.41.24-.83.59-1.12l5.66-5.02-4.01-.88c-.41-.06-.65-.35-.65-.71 0-.12.06-.24.12-.35l4.96-9.44c.18-.35.59-.47.94-.47h.24m32.81.59 7.44 1.12c.53.12.77.41.77.77 0 .12 0 .18-.06.29l-.83 1.89 5.07 1.53c.35.12.59.47.59.83 0 .18-.06.29-.12.47l-1.47 3.42c-.18.35-.59.59-1 .59-.12 0-.29-.06-.47-.12l-4.78-1.83-.88 2.07 8.08 4.54c.41.24.65.65.65 1.12 0 .41-.18.83-.47 1.12l-4.48 4.9c-.41.47-.83.65-1.24.65s-.83-.18-1.18-.41l-9.15-5.96c-.29-.18-.41-.53-.41-.88 0-.41.12-.77.41-1.06l3.3-3.07-4.6-.71a.763.763 0 0 1-.65-.77c0-.06 0-.18.06-.29l4.25-9.68c.18-.35.59-.53 1-.53h.18m-18.88-19.28h-.29c-2.12 0-3.9.96-5 2.53l-12.91-.23h-.08c-3.78 0-6.24 2.39-6.41 6.25v.1l-.18 6.9v.12c0 2.53 1.14 4.51 3.04 5.55l-2.65 5.05-.03.05-.03.05c-.18.36-.64 1.29-.64 2.58 0 1.02.26 1.99.74 2.82h-.01c-1.47 1.27-2.32 3.05-2.32 4.91 0 1.99 1.03 3.9 2.74 5.13l.05.03.05.03 4.13 2.81-1.71 1.78c-1.2 1.23-1.89 2.88-1.89 4.55 0 2.4 1.4 4.59 3.65 5.71l.09.04.09.04 6.9 3.13.1.05.11.04c1.2.48 2.4.71 3.68.71 1.03 0 2.01-.16 2.92-.47.78 1.36 2.11 2.38 3.73 2.79l9.5 2.61c.95.3 1.98.44 3.14.44 2.38 0 4.73-.71 6.45-1.93l.03-.02.03-.02c.48-.35.93-.7 1.36-1.04l6.61 1.52c.81.19 1.43.19 1.8.19 2.9 0 5.42-1.7 6.44-4.32l2.7-6.8.05-.13.04-.13c.29-.87.43-1.68.43-2.47 0-2.19-1.25-4.87-4.75-5.83l-.06-.02c-.03-.25-.08-.5-.13-.75l3.52-3.85c1.17-1.22 1.83-2.87 1.83-4.55s-.72-3.37-1.94-4.54l1.41-3.27.08-.19.07-.2c.18-.49.38-1.17.38-2.06 0-1.5-.57-2.9-1.53-3.96 1.36-1.12 2.21-2.82 2.24-4.79l.23-7.38v-.16c0-3.63-2.65-6.27-6.3-6.3l-13.99-.23c-1.06-1.3-2.68-2.15-4.58-2.29h-.12l-12.69-.59h-.12Z"
      style="fill: #895bc7"
    /><path
      d="M236.33 196.22c-2 0-3.71-1.39-4.08-3.3l-.87-3.95-6.22.38h-.08c-1.79-.01-3.37-1.27-3.69-2.93a2.87 2.87 0 0 1-.05-.55v-.06l1.14-10.64v-.07c.12-.61.37-1.16.73-1.62h-.15c-1.8 0-3.2-1.19-3.55-3.04l-1.49-6.8c-.2-1.05-.08-1.93.34-2.67.29-.5.98-1.39 2.45-1.67l3.39-.76-.11-.54-.05.02c-.44.18-.8.25-1.06.3-.36.07-.71.1-1.05.1-1.85 0-3.31-1.01-4-2.77l-2.33-6.51c-.19-.44-.26-.8-.29-.96-.37-1.9.5-3.46 2.31-4.16l21.5-7.18.45-.09c.26-.05.51-.07.76-.07 1.61 0 2.95 1.02 3.4 2.61l1.81 6.78c.68-.8 1.59-1.4 2.66-1.65l13.67-3.47.88-.17c.84-.16 1.66-.24 2.44-.24 2.98 0 8.23 1.26 9.85 9.68l.1.53 4.5 27.5c.84 4.94-1.88 7.28-4.7 7.83l-17.71 3.1c-.37.07-.77.11-1.16.11-2.3 0-4.06-1.42-4.48-3.62l-1.06-5.18-.95 1.02c-.51.5-1.12.82-1.83.96-.1.02-.2.03-.3.04l1.24 5.7c.43 2.24-.89 4.57-2.94 5.25l-8.21 2.62-.38.07c-.27.05-.55.08-.83.08Zm8.29-26.77.04-.04.15-.11c.2-.16.68-.52 1.43-.67.18-.03.38-.05.59-.05.44 0 .9.09 1.33.25l-.19-.93c-.38.21-.81.37-1.3.46l-2.17.47.13.62Zm-2.91-14.85 2.15-.47c.38-.07.68-.1.97-.1.1 0 .2 0 .3.01l-.67-3.29c-.3.22-.63.4-.96.52l-2.31.8.53 2.54Z"
      style="fill: #fff"
    /><path
      d="M240.32 139.18c.49 0 .85.27 1 .8l1.94 7.26.04.23c.13.7 0 1.2-.68 1.45l-4.34 1.5 1.5 7.16 4.61-1.01c.16-.03.3-.05.43-.05.58 0 .88.31 1.01.97l1.31 6.84c.17.87-.03 1.39-.96 1.57l-4.67 1.02 1.64 7.62 3.16-3.25c.1-.08.21-.16.38-.19.04 0 .08-.01.12-.01.23 0 .53.09.7.21l3.78 3.12c.14.09.24.31.27.49.07.35.03.78-.27 1.07l-3.49 3.73c-.15.15-.31.24-.55.29-.07.01-.15.02-.23.02-.23 0-.47-.07-.59-.22l-2.72-2.6 2.52 11.53c.19.99-.44 2.07-1.29 2.35l-8.04 2.57-.23.04c-.12.02-.24.03-.36.03-.83 0-1.49-.56-1.63-1.28l-1.44-6.57c-.2.22-.45.45-.74.5l-.12.02-7.31.44c-.6 0-1.16-.44-1.25-.9-.01-.06.02-.19.01-.24l1.11-10.19c.08-.5.45-.81.97-.91l.23-.04 4.72.17-1.18-5.18-6.22 1.38c-.15.03-.28.04-.41.04-.58 0-.96-.3-1.1-1.01l-1.5-6.86c-.14-.75.07-1.21.82-1.36l5.88-1.31-1.22-5.71-2.82.96c-.22.1-.39.14-.63.18-.21.04-.4.06-.58.06-.86 0-1.38-.45-1.68-1.19l-2.34-6.52c-.1-.22-.14-.39-.16-.51-.14-.75.15-1.11.76-1.35l21.23-7.09.29-.06c.1-.02.2-.03.29-.03m24.86 3.84c3.84 0 6.41 2.52 7.4 7.65l.1.52 4.49 27.44c.45 2.68-.39 4.52-2.71 4.97l-.12.02-17.56 3.07c-.25.05-.5.07-.73.07-1.04 0-1.81-.5-2.02-1.59l-7.2-35.27c-.26-1.33.61-2.76 1.93-3.08l13.63-3.46.81-.16c.69-.13 1.34-.2 1.97-.2m-4.06 33.71 4.19-1.04-3-17.45-.04-.23c-.28-1.43-.84-2.2-1.81-2.2-.13 0-.26.01-.41.04l-.35.07-2.55.79 3.97 20.03m-20.81-42.55c-.41 0-.82.04-1.23.12l-.29.06-.33.06-.31.1-21.23 7.09-.11.04-.11.04c-2.94 1.14-4.46 3.87-3.86 6.95.06.33.17.82.41 1.4l2.28 6.37.03.07.03.07c.32.82.77 1.55 1.32 2.16-.27.31-.52.64-.72 1.01-.5.88-1.01 2.34-.63 4.32v.06l.03.06 1.49 6.82c.38 1.85 1.44 3.32 2.89 4.17l-1.09 10.01-.08.75.04.21c0 .23.04.49.09.77.54 2.8 3.17 4.93 6.13 4.96h.34l4-.24.41 1.89c.63 3.04 3.36 5.24 6.52 5.24.43 0 .87-.04 1.3-.12l.23-.04.29-.06.28-.09 8.04-2.57h.03l.03-.02c2.55-.85 4.35-3.22 4.68-5.86 1.25 1.15 2.94 1.82 4.84 1.82.53 0 1.08-.05 1.63-.15l17.52-3.07h.04l.04-.01.12-.02c4.93-.95 7.62-5.26 6.7-10.72l-4.49-27.41v-.07l-.02-.07-.1-.52c-2.03-10.57-9.28-11.71-12.31-11.71-.94 0-1.92.1-2.91.29l-.81.16-.14.03-.14.04-13.61 3.46c-.17.04-.33.09-.5.14l-.92-3.44v-.05l-.03-.05c-.76-2.64-3.1-4.41-5.81-4.41Z"
      style="fill: #895bc7"
    /><path
      d="M332.35 202.12c-.55 0-1.02-.12-1.32-.19l-8.84-2.23c-.9-.19-1.67-.76-2.14-1.52-.55 1.7-2.18 2.88-4.1 2.88-.24 0-.66 0-1.14-.13l-4.87-1.04c-.75-.17-1.37-.49-1.85-.93-.63.85-1.7 1.75-3.47 1.75-.3 0-.74 0-1.25-.12l-5.45-1.1c-1.36-.23-2.42-1.19-2.76-2.44-.84 1.93-2.67 3.13-4.88 3.13-.49 0-.95-.09-1.32-.17l-7.17-1.54c-1.91-.41-3.1-1.84-3.1-3.74 0-.26 0-.73.15-1.24 1.25-5.15 2.1-10.4 2.22-13.71l.83-29.72c.12-3.03 2.23-5.28 5.01-5.38l14.54-.77h.48c3.42 0 6.17 1.75 7.65 4.6.11-3.08 2.24-5.21 5.37-5.31l14.6-.24c5.94 0 9.93 3.92 9.93 9.76l-.24 37.48c0 1.7-.36 4.59-2.08 8.69a5.152 5.152 0 0 1-4.78 3.24Zm-35.3-16.54c-.2 2.29-.53 5.03-.97 7.56.88-1.79 1.08-2.56 1.08-2.91l.07-4.69-.19.03Zm24.84 1.57c-.14 1.35-.34 2.95-.6 4.66.56-1.29.81-2.12.83-2.42l.05-2.26h-.28Zm.41-10.9h.1l.03-1.91h-.12l-.02 1.91Zm.35-12.77.1-4.37-.31.02-.03 4.32.24.03Z"
      style="fill: #fff"
    /><path
      d="M329.52 145.45c4.42 0 7.43 2.71 7.43 7.26l-.24 37.47c0 1.77-.47 4.37-1.89 7.73-.35.89-1.24 1.71-2.48 1.71-.24 0-.47-.06-.71-.12l-8.91-2.24c-.35-.06-.71-.41-.71-.89 0-.24.06-.53.24-.83 1.18-2.24 2.36-4.9 2.36-6.14l.12-4.9-5.13.24c-.29 3.54-.89 8.26-1.89 12.45-.18.83-.88 1.36-1.77 1.36-.18 0-.35 0-.53-.06l-4.96-1.06c-.77-.18-.94-.53-.94-1.06 0-.24 0-.47.06-.71 1.65-7.02 2.36-13.81 2.36-16.29l.12-30.62c0-1.95 1.12-3.01 2.95-3.07l14.4-.24h.12m-4.43 20.83.18-8.02c0-.71-.53-1.71-1.59-1.71h-.12l-3.6.18-.06 8.91 5.19.65m-5.31 12.51 5.07-.12.12-6.55-5.13-.65-.06 7.32M301.9 146.4c4.07 0 6.37 3.19 6.37 7.44l-.24 36.94c0 1.77-.77 4.19-1.53 5.96-.53 1.12-1.06 1.48-1.89 1.48-.24 0-.47 0-.71-.06l-5.55-1.12c-.41-.06-.83-.35-.83-.88 0-.24.06-.47.18-.71 1.06-2.01 1.95-3.89 1.95-5.19l.12-7.67-5.07.88c-.24 3.6-.83 8.56-1.65 12.04-.35 1.48-1.48 2.18-2.77 2.18-.24 0-.53-.06-.83-.12l-7.14-1.53c-.83-.18-1.12-.65-1.12-1.3 0-.18 0-.41.06-.59 1.3-5.31 2.18-10.8 2.3-14.28l.83-29.74c.06-1.42.94-2.89 2.6-2.95l14.52-.77h.41m-1.77 19.41.12-7.43c0-.94-.35-1.71-1.18-1.71h-3.3l-.35 8.38 4.72.77m-5.19 11.98 4.96-.77.12-5.66-4.78-.77-.29 7.2m34.58-37.33h-.2l-14.4.24h-.08c-2.58.08-4.73 1.17-6.11 2.93-1.85-1.42-4.18-2.22-6.83-2.22h-.68l-14.49.77c-4.02.17-7.18 3.49-7.36 7.74v.06l-.83 29.74c-.1 3.07-.94 8.22-2.14 13.13-.23.82-.23 1.52-.23 1.88 0 3.1 1.99 5.53 5.07 6.19l7.14 1.53h.03l.03.01c.45.09 1.08.22 1.81.22 1.85 0 3.53-.6 4.87-1.65.68.45 1.46.77 2.31.92l5.38 1.09c.77.17 1.41.17 1.77.17 1.15 0 2.54-.25 3.84-1.16.28.1.57.19.87.26h.04l.04.02 4.81 1.03c.78.2 1.43.2 1.73.2 1.78 0 3.41-.66 4.63-1.76.33.14.68.26 1.04.34l8.81 2.22c.38.09 1.07.27 1.93.27 3.13 0 5.91-1.88 7.1-4.8 1.48-3.53 2.27-6.86 2.27-9.64l.24-37.44c0-7.25-5.11-12.29-12.43-12.29Z"
      style="fill: #895bc7"
    /><path
      d="M372.77 198.93c-.54 0-.99-.09-1.36-.16l-9.63-2.39c-2.34-.5-3.2-2.23-3.2-3.55 0-.85.3-1.7.88-2.52l.05-.07-3.1-.77c-1.1-.28-1.83-.83-2.29-1.49-.14.29-.29.57-.43.85-1.02 2.05-2.83 3.19-5.06 3.19-.71 0-1.47-.14-2.32-.42l-8.48-2.77c-1.66-.55-2.73-1.97-2.73-3.61 0-.87.31-1.63.5-2 3.4-6.33 6.42-12.94 7.08-15.44l1.75-6.65-4.23.1c-2.36 0-3.88-1.39-4.03-3.63l-.36-8.67v-.18c0-2.17 1.56-3.68 3.8-3.68l9.15-.24 1-3.79c.47-1.71 1.88-2.81 3.6-2.81h.51l11.48 1.98c1.81.33 2.96 1.69 2.96 3.47 0 .16 0 .39-.03.66l20.36-.56c2.77 0 3.86 1.85 3.98 3.44l.36 8.91v.12c0 2.13-1.55 3.68-3.68 3.68l-25.35.66-.17.63 15.35 1.33c5.65.49 9.31 4.04 9.31 9.04 0 1.01-.15 2.06-.45 3.1-.46 1.61-1.08 3.43-1.83 5.35l3.67.79c1.86.43 3.04 1.99 3.04 3.98 0 .61-.12 1.22-.36 1.81l-2.89 7.25c-.62 1.6-2.15 2.58-4.09 2.58-.42 0-.87-.05-1.44-.17l-5.51-1.35c-.22.35-.44.69-.67 1.03-1.26 1.9-3.09 2.96-5.12 2.96Zm-4.84-22.05s.01-.03.02-.04l-.5-.07.48.1Z"
      style="fill: #fff"
    /><path
      d="m353.65 140.73 11.27 1.95c.65.12.88.47.88 1 0 .18 0 .41-.06.59l-.71 2.66 23.66-.65c.88 0 1.36.29 1.42 1.12l.35 8.73v.12c0 .77-.47 1.18-1.18 1.18l-27.26.71-1.47 5.31 18.35 1.59c4.72.41 7.02 3.13 7.02 6.55 0 .77-.12 1.59-.35 2.42-.65 2.3-1.65 5.02-2.89 7.85l6.61 1.42c.77.18 1.06.83 1.06 1.53 0 .29-.06.59-.18.88l-2.89 7.26c-.29.77-1 1-1.77 1-.29 0-.65-.06-.94-.12l-7.2-1.77c-.53.89-1 1.71-1.53 2.48-.71 1.06-1.71 1.89-3.07 1.89-.29 0-.59-.06-.88-.12l-9.5-2.36c-.83-.18-1.3-.59-1.3-1.12 0-.29.12-.65.41-1.06l2.18-3.07-6.67-1.65c-.71-.18-1-.53-1-1.06 0-.24.06-.47.18-.77l2.66-6.49c.3-.65.77-.89 1.42-.89.18 0 .41 0 .65.06l8.38 1.83c.59-1.12 1.12-2.18 1.53-3.19.12-.35.18-.65.18-.89 0-.59-.35-1-.88-1.06L357.92 173c-1.3 3.66-3.89 9.74-6.43 14.69-.65 1.3-1.65 1.83-2.83 1.83-.47 0-1-.12-1.53-.29l-8.5-2.77c-.71-.24-1-.77-1-1.24 0-.3.12-.65.24-.89 3.48-6.49 6.55-13.22 7.26-15.93l2.6-9.85-7.55.18c-1 0-1.42-.41-1.48-1.3l-.35-8.5v-.18c0-.89.53-1.18 1.3-1.18l11.09-.29 1.48-5.61c.18-.65.65-.94 1.18-.94h.29m.43-5h-.72c-2.84 0-5.25 1.86-6 4.63l-.53 2.02-7.3.19c-3.61.04-6.21 2.63-6.21 6.18v.39l.36 8.5v.12c.24 3.57 2.84 5.96 6.46 5.96h.12l.91-.02-.9 3.43c-.53 2.03-3.23 8.12-6.83 14.84l-.03.06-.03.06c-.29.57-.77 1.73-.77 3.12 0 2.7 1.78 5.1 4.42 5.98l8.52 2.78c1.09.36 2.1.54 3.09.54 2.52 0 4.71-1.05 6.24-2.93.3.12.61.22.93.3l.35.09c-.04.31-.06.6-.06.85 0 2.41 1.6 5.18 5.16 5.99l9.44 2.34.11.03.11.02c.43.09 1.08.22 1.87.22 2.72 0 5.15-1.29 6.9-3.65l3.7.91.11.03.11.02c.73.15 1.34.22 1.93.22 2.96 0 5.41-1.6 6.42-4.17l2.88-7.24c.35-.88.53-1.8.53-2.73 0-3.15-1.99-5.73-4.94-6.41h-.04l-.04-.02-.85-.18c.34-.99.64-1.94.9-2.84.36-1.26.54-2.53.54-3.78 0-3.81-1.71-7.02-4.6-9.08l3.05-.08c3.48-.04 6.1-2.68 6.1-6.18v-.32l-.36-8.73v-.16c-.24-3.4-2.87-5.77-6.4-5.77h-.14l-18.05.5c-.66-2.07-2.38-3.59-4.7-4.02l-11.31-1.96-.42-.07Z"
      style="fill: #895bc7"
    /><path
      d="M437.09 225.37c-.38 0-.77-.04-1.15-.12-.39-.08-.82-.23-1.3-.47l-8.33-4.15c-1.44-.65-2.27-2.29-1.92-3.96.05-.23.19-.95.81-1.61 3.32-3.82 3.72-5.16 3.76-5.3l1.96-8.09-.18-.05c-.81-.22-1.49-.57-2.03-1.03-.75 1.15-1.97 1.83-3.44 1.83-.36 0-.74-.04-1.13-.12l-.75-.17-3.27 15.01c-.37 1.77-1.88 3.02-3.66 3.02-.14 0-.29 0-.43-.02l-9.05-1.21-.2-.04c-1.92-.4-3.06-2.2-2.65-4.19l.84-3.87c-.36.09-.74.14-1.14.14h-.15l-9.19-.49c-.16 0-.36-.02-.59-.06-1.57-.33-3.27-1.68-2.9-4.42l2.2-19-.1-.04c-1.92-.67-3.04-2.6-2.63-4.58.05-.26.15-.74.45-1.25l11.22-19.49c.78-1.26 1.97-1.95 3.31-1.95.27 0 .55.03.83.09.53.11.96.32 1.25.46l.09.04 7.4 4.32c.67-1.9 2.27-3.09 4.25-3.09.36 0 .73.04 1.1.12l8.74 2.06c2.38.58 4.11 1.78 5.12 3.48a4.29 4.29 0 0 1 3.26-1.45c.34 0 .7.04 1.05.11l9.37 2.13c4.67 1.05 7 5.07 5.92 10.23l-.04.17-8.43 36.81c-.47 1.92-1.99 5.29-4.25 8.25-.92 1.23-2.39 1.94-4 1.94Zm-27.43-42.14c.46.55.75 1.22.84 1.97l1.18-5.46-2.02 3.48Z"
      style="fill: #fff"
    /><path
      d="M405.44 162.22c.1 0 .21.01.32.03.23.05.45.15.67.26l8.01 4.68c.59.36.78.89.66 1.46-.05.23-.15.45-.26.67l-8.64 14.9.69.14c.87.18 1.22.8 1.12 1.56l-2.28 20.56-.07.35c-.21 1.02-.86 1.65-1.84 1.65h-.07l-8.94-.47c-.12-.02-.3 0-.42-.03-.87-.18-1.04-.82-.93-1.64l2.44-21.01-1.96-.71c-.84-.3-1.17-1.03-1.03-1.72.04-.17.07-.35.17-.51l11.22-19.49c.3-.48.7-.69 1.15-.69m13.8 1.81c.19 0 .38.02.59.06l.12.02 8.56 2.02c3.33.81 4.84 3.11 3.98 7.22l-.04.17-5.52 24.83c-.24 1.16-.87 1.58-1.68 1.58-.2 0-.4-.02-.62-.07l-3.17-.72-3.81 17.47c-.13.64-.63 1.05-1.22 1.05h-.15l-8.91-1.19-.12-.02c-.58-.12-.84-.6-.71-1.23l10.67-49.31c.23-1.09.88-1.87 2.01-1.87m3.1 22.67c-.07 0-.14 0-.21-.01l-1.53-.2-.78 3.45 3.52.73 2.57-11.52c.22-1.04.18-2.01-.86-2.23l-2.31-.48-1.14 5.19 1.41.17.12.02c.58.12.68.5.58.96l-.53 3.14c-.12.6-.43.76-.85.76m15.12-18.47c.17 0 .35.02.54.06l9.32 2.12c3.34.75 4.83 3.41 4.03 7.29l-.04.17-8.42 36.76c-.39 1.61-1.82 4.68-3.8 7.29-.52.69-1.27.96-2.02.96-.22 0-.43-.02-.64-.07-.23-.05-.51-.17-.73-.27l-8.3-4.14c-.5-.22-.69-.75-.59-1.21.02-.12.06-.29.21-.44 2.14-2.45 3.97-4.9 4.34-6.39l2.54-10.5-2.58-.66c-1.03-.27-1.8-.92-1.47-2.48l5.58-26.56c.26-1.24.98-1.94 2.02-1.94m1.6 20.12c-.09 0-.19 0-.29-.02l-2.06-.25-.65 3.12 3.95 1 2.15-9.5c.22-1.04-.09-2.19-1.01-2.38l-2.66-.55-.8 3.87 2 .23.12.02c.46.1.68.5.58.96l-.52 2.79c-.12.56-.42.69-.82.69m-33.63-31.14c-2.19 0-4.21 1.15-5.4 3.06l-.04.07-.04.07-11.22 19.49c-.49.85-.65 1.62-.73 1.99a6.41 6.41 0 0 0 2.5 6.52l-2.01 17.32c-.45 3.52 1.55 6.46 4.87 7.15.4.08.75.11.98.11h.19l7.3.39-.17.77c-.32 1.54-.09 3.07.63 4.34a5.92 5.92 0 0 0 3.95 2.85l.12.02.18.04.18.02 8.91 1.19h.05l.05.01c.24.03.48.04.72.04 2.44 0 4.56-1.38 5.59-3.51.47 1.61 1.6 2.99 3.2 3.75l8.25 4.11h.03l.03.03c.67.32 1.28.54 1.88.66.55.11 1.1.17 1.66.17 2.41 0 4.6-1.08 6.01-2.96 2.47-3.23 4.13-6.9 4.66-9.1v-.04l.02-.04 8.42-36.76v-.05l.02-.05.04-.17c1.35-6.52-1.79-11.82-7.82-13.18l-9.32-2.12h-.05l-.05-.02c-.52-.11-1.05-.16-1.56-.16-1 0-1.95.21-2.81.59-1.28-1.18-2.95-2.05-4.96-2.54l-8.6-2.03-.07-.02h-.07l-.12-.04c-.54-.11-1.08-.17-1.61-.17-2.01 0-3.8.82-5.08 2.21l-5.22-3.05-.17-.1-.18-.09c-.37-.18-.99-.48-1.83-.65-.44-.09-.89-.14-1.34-.14Zm19.89 47.71c.83 0 1.61-.15 2.32-.42l-1.1 4.55c-.1.22-.68 1.38-3.01 4.1l1.79-8.23Z"
      style="fill: #895bc7"
    /><path
      d="M465.57 219.27c-1.1 0-2.17-.16-3.21-.48-2.92-.9-5.31-2.89-6.71-5.6-1.35-2.6-1.64-5.66-.8-8.4a11.2 11.2 0 0 1 7.11-7.35c-1.09-.9-1.63-2.37-1.31-3.86 1.36-5.96 5.05-21.08 7.46-29.14.5-1.63 1.95-2.71 3.6-2.71.37 0 .74.06 1.09.16l12.97 3.99c4.15 1.28 2.99 5.81.75 13.09-2.74 8.93-6.8 17.12-8.42 20.23-.66 1.33-1.96 2.2-3.38 2.25 2.01 2.75 2.75 6.37 1.68 9.84-1.47 4.77-5.83 7.97-10.85 7.97Z"
      style="fill: #fff"
    /><path
      d="M471.72 164.23c.12 0 .24.02.36.05l12.97 3.99c1.07.33 1.9.83-.9 9.97-2.2 7.16-5.53 14.6-8.25 19.81-.26.52-.72.9-1.28.9-.13 0-.26-.02-.39-.06l-10.21-3.14c-.73-.23-1.07-.95-.92-1.64 1.23-5.42 4.98-20.82 7.42-28.96.17-.56.66-.93 1.21-.93m-6.02 35.09c.83 0 1.67.12 2.47.37 4.79 1.47 7.19 6.53 5.86 10.87-1.2 3.9-4.81 6.21-8.46 6.21-.83 0-1.66-.12-2.47-.37-4.79-1.47-7.19-6.53-5.86-10.87 1.2-3.9 4.81-6.21 8.46-6.21m6.02-40.09c-2.76 0-5.17 1.79-5.99 4.46-2.44 8.15-6.15 23.35-7.51 29.32-.26 1.17-.19 2.33.14 3.39a13.751 13.751 0 0 0-5.9 7.67c-1.03 3.35-.68 7.1.97 10.28 1.72 3.31 4.63 5.74 8.2 6.84 1.27.39 2.6.59 3.94.59 6.13 0 11.45-3.91 13.24-9.74.98-3.18.72-6.45-.49-9.3a6.8 6.8 0 0 0 2.03-2.4c1.66-3.19 5.78-11.52 8.58-20.62 1.48-4.81 2.11-7.72 2.13-9.72.02-3.23-1.63-5.6-4.53-6.49l-12.98-3.99c-.6-.18-1.21-.28-1.83-.28Z"
      style="fill: #895bc7"
    /></g>
</svg>
